<?xml version="1.0" encoding="iso-8859-1"?>
<!-- Uploaded to: SVG Repo, www.svgrepo.com, Generator: SVG Repo Mixer Tools -->
<!DOCTYPE svg PUBLIC "-//W3C//DTD SVG 1.1//EN" "http://www.w3.org/Graphics/SVG/1.1/DTD/svg11.dtd">
<svg fill="#000000" version="1.1" id="Capa_1" xmlns="http://www.w3.org/2000/svg" xmlns:xlink="http://www.w3.org/1999/xlink" 
	 width="800px" height="800px" viewBox="0 0 32.001 32" xml:space="preserve">
<g>
	<g>
		<path d="M31.85,16.934c0.513-2.951,0.191-12.829-10.071-14.016C11.516,1.73,9.688,9.686,9.688,9.686S2.566,6.415,0,11.545
			c2.951-0.706,4.587,0.096,4.587,0.096s-4.298,4.233-2.405,9.333c1.058-6.733,6.831-9.686,6.831-9.686s0.589,5.227,0.353,5.964
			c-0.236,0.737,0.225,1.54-0.128,1.797c-0.354,0.258-5.004,7.856,3.688,10.007C9.431,25.53,10.97,22.74,10.97,22.74
			s0.866,5.578,5.517,5.578c-2.129-2.256-2.605-5.735-2.622-8.33h6.384v-1.725h1.091v1.725h6.58V17.84
			c0.139-0.078,0.524-0.304,0.893-0.543c0.004,0.378,0.002,0.771-0.01,1.175c-0.098,3.505-3.455,7.998-8.914,8.211
			c1.058,1.699,5.482-0.578,5.482-0.578s0.225,1.639-2.406,1.988c1.637,0.771,4.01-0.673,4.01-0.673s-0.348,1.63-1.494,1.703
			C34.537,30.217,31.346,19.829,31.85,16.934z M13.688,18.032c-0.232,0-0.421-0.188-0.421-0.423c0-0.23,0.188-0.42,0.421-0.42
			s0.421,0.188,0.421,0.42C14.108,17.843,13.92,18.032,13.688,18.032z M19.895,19.635h-5.879v-0.438h4.572v-2.384h-4.522
			c0.024-0.168,0.041-0.27,0.041-0.27l0.544-0.171h5.247L19.895,19.635L19.895,19.635z M15.931,19.038v-2.064h2.499v2.064H15.931z
			 M27.566,19.635h-5.883v-3.263h5.883V19.635z M27.918,17.018v-0.994h-6.58v1.05h-1.091v-1.05H15.76l4.953-1.562l7.641-2.08
			c0,0,0.332,1.592,0.433,3.966C28.52,16.585,28.139,16.861,27.918,17.018z"/>
		<circle cx="17.337" cy="18.021" r="0.943"/>
		<circle cx="24.061" cy="18.021" r="0.943"/>
		<path d="M22.398,22.804c0.095-0.052,0.127-0.169,0.074-0.262c-0.051-0.094-0.168-0.126-0.261-0.075
			c-0.007,0.004-0.636,0.348-1.446,0.348c-0.813,0-1.588-0.351-1.596-0.354c-0.097-0.045-0.21-0.001-0.255,0.096
			c-0.044,0.098-0.002,0.212,0.095,0.255c0.034,0.018,0.854,0.39,1.756,0.39C21.678,23.198,22.371,22.82,22.398,22.804z"/>
	</g>
</g>
</svg>